<?xml version="1.0" encoding="iso-8859-1"?>
<!-- Generator: Adobe Illustrator 19.0.0, SVG Export Plug-In . SVG Version: 6.00 Build 0)  -->
<svg version="1.1" id="Capa_1" xmlns="http://www.w3.org/2000/svg" xmlns:xlink="http://www.w3.org/1999/xlink" x="0px" y="0px"
	 viewBox="0 0 508.1 508.1" style="enable-background:new 0 0 508.1 508.1;" xml:space="preserve">
<g>
	<g>
		<path d="M352.35,49.2h-32.8V0h-131v49.2h-32.8c-13.6,0-24.6,11-24.6,24.6v409.7c0,13.6,11,24.6,24.6,24.6h196.6
			c13.6,0,24.6-11,24.6-24.6V73.7C376.95,60.2,365.95,49.2,352.35,49.2z M204.85,16.4h98.3v32.8h-98.3V16.4z M360.55,483.4
			c0,4.5-3.7,8.2-8.2,8.2h-196.6c-4.5,0-8.2-3.7-8.2-8.2V73.7c0-4.5,3.7-8.2,8.2-8.2h196.6c4.5,0,8.2,3.7,8.2,8.2V483.4z"/>
	</g>
</g>
<g>
	<g>
		<path d="M330.25,229.4h-54.7l32.7-65.5h-67.5L175.25,295h37.5l-25.1,88L330.25,229.4z M201.85,278.6l49.2-98.3h30.8l-32.8,65.5
			h43.6l-70.4,75.9l12.3-43.1H201.85z"/>
	</g>
</g>
<g>
</g>
<g>
</g>
<g>
</g>
<g>
</g>
<g>
</g>
<g>
</g>
<g>
</g>
<g>
</g>
<g>
</g>
<g>
</g>
<g>
</g>
<g>
</g>
<g>
</g>
<g>
</g>
<g>
</g>
</svg>
