<svg height="512pt" viewBox="-64 0 512 512" width="512pt" xmlns="http://www.w3.org/2000/svg"><path d="m208.421875 7.546875c-8.398437-10.0625-24.359375-10.0625-32.757813 0-17.980468 21.53125-175.664062 213.253906-175.664062 312.410156 0 105.890625 86.152344 192.042969 192.042969 192.042969 105.894531 0 192.046875-86.152344 192.046875-192.042969 0-99.15625-157.6875-290.878906-175.667969-312.410156zm-16.378906 461.777344c-82.359375 0-149.367188-67.003907-149.367188-149.367188 0-63.628906 96.261719-198.015625 149.367188-264.894531 53.105469 66.878906 149.367187 201.265625 149.367187 264.894531 0 82.363281-67.007812 149.367188-149.367187 149.367188zm0 0"/><path d="m112.941406 347.527344 128.027344-128.027344 30.175781 30.175781-128.027343 128.027344zm0 0"/><path d="m170.707031 255.941406c0 11.785156-9.554687 21.339844-21.339843 21.339844-11.785157 0-21.335938-9.554688-21.335938-21.339844s9.550781-21.339844 21.335938-21.339844c11.785156 0 21.339843 9.554688 21.339843 21.339844zm0 0"/><path d="m256.058594 341.292969c0 11.785156-9.554688 21.339843-21.339844 21.339843-11.78125 0-21.335938-9.554687-21.335938-21.339843 0-11.785157 9.554688-21.335938 21.335938-21.335938 11.785156 0 21.339844 9.550781 21.339844 21.335938zm0 0"/></svg>