<?xml version="1.0" encoding="iso-8859-1"?>
<!-- Generator: Adobe Illustrator 19.0.0, SVG Export Plug-In . SVG Version: 6.00 Build 0)  -->
<svg version="1.1" id="Capa_1" xmlns="http://www.w3.org/2000/svg" xmlns:xlink="http://www.w3.org/1999/xlink" x="0px" y="0px"
	 viewBox="0 0 393.6 393.6" style="enable-background:new 0 0 393.6 393.6;" xml:space="preserve">
<g>
	<path style="fill:#111828;" d="M196.8,30c-46,0-87.6,18.8-118,48.8s-48.8,72-48.8,118s18.8,87.6,48.8,118c30,30,72,48.8,118,48.8
		s87.6-18.8,118-48.8c30-30,48.8-72,48.8-118s-18.8-87.6-48.8-118C284.4,48.8,242.8,30,196.8,30z M303.2,303.2
		c-27.2,27.2-64.8,44-106.4,44s-79.2-16.8-106.4-44s-44-64.8-44-106.4s16.8-79.2,44-106.4s64.8-44,106.4-44s79.2,16.8,106.4,44
		c27.2,27.2,44,64.8,44,106.4C347.6,238.4,330.8,276,303.2,303.2z"/>
	<path style="fill:#111828;" d="M196.8,0C142.4,0,93.2,22,57.6,57.6S0,142.4,0,196.8S22,300.4,57.6,336s84.8,57.6,139.2,57.6
		s103.6-22,139.2-57.6s57.6-84.8,57.6-139.2S371.6,93.2,336,57.6S251.2,0,196.8,0z M324.8,324.8c-32.8,32.8-78,52.8-128,52.8
		s-95.2-20.4-128-52.8C36,292,16,246.8,16,196.8s20.4-95.2,52.8-128c32.8-32.8,78-52.8,128-52.8s95.2,20.4,128,52.8
		c32.8,32.8,52.8,78,52.8,128S357.2,292,324.8,324.8z"/>
	<path style="fill:#111828;" d="M280.8,109.2L280.8,109.2L280.8,109.2c-2.4-2-5.2-3.6-8.4-3.6h-48.8c-3.2,0-6.4,1.2-8.4,3.6
		c-2,2-3.6,5.2-3.6,8.4v43.2H182v-43.2c0-3.2-1.2-6.4-3.6-8.4l0,0l0,0l0,0c-2-2-5.2-3.6-8.4-3.6h-48.8c-3.2,0-6.4,1.2-8.4,3.6
		c-2,2-3.6,5.2-3.6,8.4V276c0,3.2,1.2,6.4,3.6,8.4l0,0c2,2,5.2,3.6,8.4,3.6H170c3.2,0,6.4-1.2,8.4-3.6c2-2,3.6-5.2,3.6-8.4v-46.4
		h29.6V276c0,3.2,1.2,6.4,3.6,8.4l0,0c2,2,5.2,3.6,8.4,3.6h49.2c3.2,0,6.4-1.2,8.4-3.6c2-2,3.6-5.2,3.6-8.4V117.6
		C284.4,114.4,283.2,111.6,280.8,109.2L280.8,109.2z M268.4,272h-40.8v-50.4c0-4.4-3.6-8-8-8H174c-4.4,0-8,3.6-8,8V272h-40.8V121.6
		H166v47.2c0,4.4,3.6,8,8,8h45.6c4.4,0,8-3.6,8-8v-47.2h41.2V272H268.4z"/>
</g>
<g>
	<path style="fill:#1A93A8;" d="M196.8,363.6c-46,0-87.6-18.8-118-48.8c-30-30.4-48.8-72-48.8-118s18.8-87.6,48.8-118
		c30-30,72-48.8,118-48.8s87.6,18.8,118,48.8c30,30,48.8,72,48.8,118s-18.8,87.6-48.8,118C284.4,344.8,242.8,363.6,196.8,363.6z
		 M16,196.8c0,50,20.4,95.2,52.8,128c32.8,32.8,78,52.8,128,52.8s95.2-20.4,128-52.8c32.8-32.8,52.8-78,52.8-128
		s-20.4-95.2-52.8-128C292,36,246.8,16,196.8,16s-95.2,20.4-128,52.8C36.4,101.6,16,146.8,16,196.8z"/>
	<path style="fill:#6BCBDD;" d="M125.2,121.6V272H166v-50.4c0-4.4,3.6-8,8-8h45.6c4.4,0,8,3.6,8,8V272h41.2V121.6h-41.2v47.2
		c0,4.4-3.6,8-8,8H174c-4.4,0-8-3.6-8-8v-47.2H125.2z"/>
</g>
<g>
</g>
<g>
</g>
<g>
</g>
<g>
</g>
<g>
</g>
<g>
</g>
<g>
</g>
<g>
</g>
<g>
</g>
<g>
</g>
<g>
</g>
<g>
</g>
<g>
</g>
<g>
</g>
<g>
</g>
</svg>
