<svg id="Capa_1" enable-background="new 0 0 512 512" height="512" viewBox="0 0 512 512" width="512" xmlns="http://www.w3.org/2000/svg"><g><g><path clip-rule="evenodd" d="m225.145 41.319h-153.464v30.771h-30.841v153.124h30.84v61.544h-30.84v153.124h30.84v30.772h153.465v-30.772h61.681v30.772h153.465v-30.772h30.84v-153.124h-30.84v-61.544h30.84v-153.124h-30.84v-30.771h-153.465v30.771h-61.681zm-112.306 71.838h286.322v219.221 66.465h-22.648-263.674v-36.259z" fill="#fff" fill-rule="evenodd"/></g><g><path clip-rule="evenodd" d="m71.681 41.319v-30.772h-61.681v61.543h30.84 30.841z" fill="#d0f2d2" fill-rule="evenodd"/></g><g><path clip-rule="evenodd" d="m286.826 41.319v-30.772h-61.681v30.772 30.771h61.681z" fill="#d0f2d2" fill-rule="evenodd"/></g><g><path clip-rule="evenodd" d="m502 72.09v-61.543h-61.709v30.772 30.771h30.84z" fill="#d0f2d2" fill-rule="evenodd"/></g><g><path clip-rule="evenodd" d="m502 286.758v-61.544h-30.869-30.84v61.544h30.84z" fill="#d0f2d2" fill-rule="evenodd"/></g><g><path clip-rule="evenodd" d="m71.681 286.758v-61.544h-30.841-30.84v61.544h30.84z" fill="#d0f2d2" fill-rule="evenodd"/></g><g><path clip-rule="evenodd" d="m71.681 470.653v-30.772h-30.841-30.84v61.572h61.681z" fill="#d0f2d2" fill-rule="evenodd"/></g><g><path clip-rule="evenodd" d="m286.826 470.653v-30.772h-61.681v30.772 30.8h61.681z" fill="#d0f2d2" fill-rule="evenodd"/></g><g><path clip-rule="evenodd" d="m502 501.453v-61.572h-30.869-30.84v30.772 30.8z" fill="#d0f2d2" fill-rule="evenodd"/></g><g><path clip-rule="evenodd" d="m297.286 319.764-43.993-43.867c-14.74-14.707-38.862-14.707-53.574 0l-86.88 86.687v36.259h263.674z" fill="#a0e5a5" fill-rule="evenodd"/></g><g><path clip-rule="evenodd" d="m399.161 332.378-44.39-44.291c-7.086-7.042-18.68-7.042-25.738 0l-31.747 31.677 79.227 79.079h22.648z" fill="#d0f2d2" fill-rule="evenodd"/></g><g><path clip-rule="evenodd" d="m399.161 113.157h-286.322v249.427l86.88-86.687c14.712-14.707 38.834-14.707 53.574 0l43.993 43.867 31.747-31.677c7.058-7.042 18.652-7.042 25.738 0l44.39 44.291zm-131.468 82.841c0-17.564 14.286-31.79 31.889-31.79s31.861 14.226 31.861 31.79-14.258 31.818-31.861 31.818-31.889-14.254-31.889-31.818z" fill="#66e0f7" fill-rule="evenodd"/></g><g><path clip-rule="evenodd" d="m331.443 195.998c0-17.564-14.258-31.79-31.861-31.79s-31.889 14.226-31.889 31.79 14.286 31.818 31.889 31.818 31.861-14.254 31.861-31.818z" fill="#ffcd69" fill-rule="evenodd"/></g><g><path d="m399.161 103.157h-128.265c-5.523 0-10 4.477-10 10s4.477 10 10 10h118.265v185.117l-27.341-27.28c-11.004-10.938-28.881-10.931-39.85.014l-24.699 24.644-36.916-36.833c-18.682-18.641-49.056-18.637-67.7 0l-69.817 69.662v-215.324h58.257c5.523 0 10-4.477 10-10s-4.477-10-10-10h-68.257c-5.523 0-10 4.477-10 10v285.686c0 5.523 4.477 10 10 10h286.322c5.523 0 10-4.477 10-10v-285.686c.001-5.523-4.476-10-9.999-10zm-276.322 263.576 83.95-83.763c10.862-10.858 28.555-10.855 39.441.007l106.103 105.867h-229.494zm257.809 22.11-69.219-69.065 24.667-24.612c3.14-3.134 8.464-3.127 11.612 0l41.453 41.361v52.316z"/><path d="m502 82.09c5.523 0 10-4.477 10-10v-61.543c0-5.523-4.477-10-10-10h-61.709c-5.523 0-10 4.477-10 10v20.772h-133.465v-20.772c0-5.523-4.477-10-10-10h-61.681c-5.523 0-10 4.477-10 10v20.772h-133.464v-20.772c0-5.523-4.477-10-10-10h-61.681c-5.523 0-10 4.477-10 10v61.543c0 5.523 4.477 10 10 10h20.84v133.124h-20.84c-5.523 0-10 4.477-10 10v61.544c0 5.523 4.477 10 10 10h20.84v133.124h-20.84c-5.523 0-10 4.477-10 10v61.572c0 5.523 4.477 10 10 10h61.681c5.523 0 10-4.477 10-10v-20.8h133.465v20.8c0 5.523 4.477 10 10 10h61.681c5.523 0 10-4.477 10-10v-20.8h133.465v20.8c0 5.523 4.477 10 10 10h61.708c5.523 0 10-4.477 10-10v-61.572c0-5.523-4.477-10-10-10h-20.869v-133.124h20.869c5.523 0 10-4.477 10-10v-61.544c0-5.523-4.477-10-10-10h-20.869v-133.124zm-51.709-61.543h41.709v41.543h-41.709zm-215.145 0h41.681v41.543h-41.681zm-215.146 0h41.681v41.543h-41.681zm0 214.667h41.681v41.544h-41.681zm41.681 256.239h-41.681v-41.572h41.681zm215.145 0h-41.681v-41.572h41.681zm215.174 0h-41.709v-41.572h41.709zm0-214.695h-41.709v-41.544h41.709zm-30.869-61.544h-20.84c-5.523 0-10 4.477-10 10v61.544c0 5.523 4.477 10 10 10h20.84v133.124h-20.84c-5.523 0-10 4.477-10 10v20.771h-133.465v-20.771c0-5.523-4.477-10-10-10h-61.681c-5.523 0-10 4.477-10 10v20.771h-133.464v-20.771c0-5.523-4.477-10-10-10h-20.841v-133.124h20.84c5.523 0 10-4.477 10-10v-61.544c0-5.523-4.477-10-10-10h-20.84v-133.124h20.84c5.523 0 10-4.477 10-10v-20.771h133.465v20.771c0 5.523 4.477 10 10 10h61.681c5.523 0 10-4.477 10-10v-20.771h133.465v20.771c0 5.523 4.477 10 10 10h20.84z"/><path d="m299.582 237.816c23.082 0 41.861-18.759 41.861-41.818 0-23.043-18.779-41.79-41.861-41.79-23.098 0-41.889 18.747-41.889 41.79 0 23.059 18.791 41.818 41.889 41.818zm0-63.608c12.054 0 21.861 9.775 21.861 21.79 0 12.03-9.807 21.818-21.861 21.818-12.07 0-21.889-9.788-21.889-21.818 0-12.015 9.819-21.79 21.889-21.79z"/><path d="m225.996 123.157h.057c5.523 0 9.972-4.477 9.972-10s-4.505-10-10.028-10-10 4.477-10 10 4.476 10 9.999 10z"/></g></g></svg>