<?xml version="1.0" encoding="iso-8859-1"?>
<!-- Generator: Adobe Illustrator 19.0.0, SVG Export Plug-In . SVG Version: 6.00 Build 0)  -->
<svg version="1.1" id="Layer_1" xmlns="http://www.w3.org/2000/svg" xmlns:xlink="http://www.w3.org/1999/xlink" x="0px" y="0px"
	 viewBox="0 0 512 512" style="enable-background:new 0 0 512 512;" xml:space="preserve">
<path style="fill:#72C5D5;" d="M489.473,50.714H228.464c-35.768,0-64.764,28.996-64.764,64.764l0,0
	c0,35.768,28.996,64.764,64.764,64.764h83.892h46.861c15.316,0,27.732,12.416,27.732,27.732l0,0
	c0,15.316-12.416,27.732-27.732,27.732h-46.861H72.816c-35.768,0-64.764,28.996-64.764,64.764l0,0
	c0,35.768,28.996,64.764,64.764,64.764h83.892h132.736c15.316,0,27.732,12.416,27.732,27.732l0,0
	c0,15.316-12.416,27.732-27.732,27.732H8.051v37.031h334.524c35.768,0,64.764-28.996,64.764-64.764l0,0
	c0-35.768-28.996-64.764-64.764-64.764h-173.69c-15.316,0-27.732-12.416-27.732-27.732l0,0c0-15.316,12.416-27.732,27.732-27.732
	h143.47h126.83c35.768,0,64.764-28.996,64.764-64.764l0,0c0-35.768-28.996-64.764-64.764-64.764h-126.83h-30.759
	c-15.316,0-27.732-12.416-27.732-27.732l0,0c0-15.316,12.416-27.732,27.732-27.732h207.877"/>
<path d="M168.885,280.789h270.3c40.15,0,72.815-32.665,72.815-72.815s-32.665-72.815-72.815-72.815H281.596
	c-10.852,0-19.681-8.829-19.681-19.681s8.829-19.681,19.681-19.681h207.877c4.447,0,8.051-3.605,8.051-8.051
	c0-4.446-3.604-8.051-8.051-8.051H281.596c-19.731,0-35.783,16.052-35.783,35.783s16.052,35.783,35.783,35.783h157.589
	c31.271,0,56.713,25.442,56.713,56.713s-25.442,56.713-56.713,56.713h-270.3c-19.731,0-35.783,16.052-35.783,35.783
	c0,19.731,16.052,35.783,35.783,35.783h173.691c10.58,0,20.899,2.929,29.839,8.474c1.32,0.819,2.787,1.21,4.235,1.21
	c2.693,0,5.325-1.351,6.85-3.809c2.343-3.78,1.18-8.742-2.6-11.085c-11.49-7.125-24.743-10.891-38.324-10.891H168.885
	c-10.852,0-19.681-8.829-19.681-19.681S158.033,280.789,168.885,280.789z"/>
<path d="M390.683,348.867c-3.621,2.581-4.464,7.607-1.885,11.228c6.864,9.632,10.49,20.999,10.49,32.871
	c0,31.271-25.442,56.713-56.713,56.713H8.051c-4.447,0-8.051,3.605-8.051,8.051c0,4.446,3.604,8.051,8.051,8.051h334.525
	c40.15,0,72.815-32.665,72.815-72.815c0-15.241-4.661-29.838-13.478-42.214C399.332,347.132,394.308,346.287,390.683,348.867z"/>
<path d="M279.136,58.765h210.337c4.447,0,8.051-3.605,8.051-8.051s-3.604-8.051-8.051-8.051H279.136
	c-4.447,0-8.051,3.605-8.051,8.051S274.689,58.765,279.136,58.765z"/>
<path d="M359.218,227.655H161.602c-4.447,0-8.051,3.605-8.051,8.051s3.604,8.051,8.051,8.051h197.616
	c19.731,0,35.783-16.052,35.783-35.783s-16.052-35.783-35.783-35.783H228.464c-31.272,0-56.714-25.442-56.714-56.713
	s25.442-56.713,56.714-56.713h21.69c4.447,0,8.051-3.605,8.051-8.051s-3.604-8.051-8.051-8.051h-21.69
	c-40.15,0-72.816,32.665-72.816,72.815c0,40.151,32.666,72.815,72.816,72.815h130.753c10.852,0,19.681,8.829,19.681,19.681
	S370.07,227.655,359.218,227.655z"/>
<path d="M289.444,412.647H8.051c-4.447,0-8.051,3.605-8.051,8.051c0,4.446,3.604,8.051,8.051,8.051h281.393
	c19.731,0,35.783-16.052,35.783-35.783c0-19.731-16.052-35.783-35.783-35.783H72.816c-31.272,0.001-56.714-25.44-56.714-56.712
	s25.442-56.713,56.714-56.713h63.025c4.447,0,8.051-3.605,8.051-8.051s-3.604-8.051-8.051-8.051H72.816
	C32.666,227.655,0,260.32,0,300.471s32.666,72.815,72.816,72.815h216.628c10.852,0,19.681,8.829,19.681,19.681
	S300.297,412.647,289.444,412.647z"/>
<path d="M74.266,171.537c-3.473,2.777-4.036,7.844-1.258,11.316c2.776,3.471,7.844,4.035,11.315,1.258l14.212-11.369v28.048
	c0,4.446,3.604,8.051,8.051,8.051c4.447,0,8.051-3.605,8.051-8.051v-28.048l14.212,11.369c1.485,1.187,3.259,1.765,5.024,1.765
	c2.362,0,4.703-1.035,6.291-3.022c2.778-3.473,2.215-8.539-1.258-11.316l-24.269-19.413v-13.373l14.212,11.369
	c1.485,1.187,3.259,1.765,5.024,1.765c2.362,0,4.703-1.035,6.291-3.022c2.778-3.471,2.215-8.538-1.258-11.316l-24.269-19.413
	v-13.372l14.212,11.369c1.485,1.187,3.259,1.765,5.024,1.765c2.362,0,4.703-1.035,6.291-3.022c2.778-3.473,2.215-8.538-1.258-11.316
	l-27.292-21.831c-2.939-2.352-7.118-2.352-10.057,0l-27.291,21.829c-3.473,2.777-4.036,7.844-1.258,11.316
	c2.776,3.471,7.844,4.036,11.315,1.258l14.212-11.369v13.371l-24.269,19.413c-3.473,2.777-4.036,7.844-1.258,11.316
	c2.776,3.471,7.844,4.035,11.315,1.258l14.212-11.369v13.371L74.266,171.537z"/>
<path d="M495.916,349.776c1.485,1.187,3.259,1.765,5.024,1.765c2.362,0,4.703-1.035,6.291-3.022
	c2.778-3.473,2.214-8.539-1.258-11.316l-32.775-26.217c-2.939-2.351-7.118-2.351-10.057,0l-32.775,26.217
	c-3.473,2.777-4.036,7.844-1.258,11.316c2.776,3.471,7.844,4.035,11.315,1.258l19.697-15.755v20.2l-29.754,23.799
	c-3.473,2.777-4.036,7.844-1.258,11.316c2.776,3.471,7.844,4.035,11.315,1.258l19.697-15.755v20.2l-29.754,23.8
	c-3.473,2.777-4.036,7.844-1.258,11.316c2.777,3.471,7.844,4.035,11.315,1.258l19.697-15.755v45.625
	c0,4.446,3.604,8.051,8.051,8.051c4.447,0,8.051-3.605,8.051-8.051V415.66l19.697,15.755c1.485,1.187,3.26,1.765,5.024,1.765
	c2.362,0,4.703-1.035,6.291-3.022c2.778-3.473,2.215-8.539-1.258-11.316l-29.754-23.8v-20.2l19.697,15.755
	c1.485,1.187,3.259,1.765,5.024,1.765c2.362,0,4.703-1.035,6.291-3.022c2.778-3.473,2.215-8.539-1.258-11.316l-29.754-23.799
	v-20.203L495.916,349.776z"/>
<g>
</g>
<g>
</g>
<g>
</g>
<g>
</g>
<g>
</g>
<g>
</g>
<g>
</g>
<g>
</g>
<g>
</g>
<g>
</g>
<g>
</g>
<g>
</g>
<g>
</g>
<g>
</g>
<g>
</g>
</svg>
